<svg xmlns="http://www.w3.org/2000/svg" viewBox="0 0 160.25 160.25"><defs><style>.cls-1{fill:#231f20;}.cls-2{fill:#fff;}</style></defs><g id="Layer_2" data-name="Layer 2"><g id="Layer_1-2" data-name="Layer 1"><rect class="cls-1" width="160.25" height="160.25"/><path class="cls-2" d="M49.54,96.13q3.83,0,2.52,7.65l-10.57,9.57H25.68l-11-6.65L8.57,94.82V79.72l5.94-12L25.28,61H43.2l11,14.59q-.6,13.69-19,13.7T17.33,96.63l8.66,9H42.8Q45.62,96.14,49.54,96.13ZM26,68.75l-7.35,7Q17.13,82,31.22,82t13.69-6.45L38,68.75Z"/><path class="cls-2" d="M103.1,93.92c0,2.55-1.55,3.82-4.63,3.82s-4.63,2.42-4.63,7.25-1.35,7.35-4,7.35-4-2.45-4-7.35S81.19,97.74,72,97.74,58.1,96.47,58.1,93.92a12.43,12.43,0,0,1,1.46-4.18q1.45-3.08,3.87-7.35t5.44-9.11q3-4.83,6.19-9.46t6.14-8.46a72.18,72.18,0,0,1,5.24-6.14c1.51-1.54,2.63-2.32,3.37-2.32q4,0,4,21.65t4.63,21.64C101.55,90.19,103.1,91.43,103.1,93.92ZM76.42,90.19q9.36,0,9.36-14.9,0-4.23-1.15-5.43a2.16,2.16,0,0,0-2.87-.26,12.85,12.85,0,0,0-3.58,3.28,31.12,31.12,0,0,0-3.37,5.23,21.23,21.23,0,0,0-2.06,5.69,7.83,7.83,0,0,0,.2,4.58C73.45,89.59,74.61,90.19,76.42,90.19Z"/><path class="cls-2" d="M151.42,102.67l-11.78,10.68h-15.3L113.67,107l-6.24-11.88V79.42l6.24-12L124.34,61h15.2l11.78,10.67q1.2,9.17-2.42,9.16t-5.54-5.94l-6.94-6.14h-9.77l-7,4.43-4.13,8.35V93l4.13,8.25,7,4.33h9.87l6.95-6.14c1.2-4,3-6,5.43-6S152.16,96.5,151.42,102.67Z"/><path class="cls-2" d="M68.83,68.75q-2.23,0-5.37-3.21t-6.29,0c-2.1,2.14-3.87,3.21-5.33,3.21s-.81-1.43,2-4.3,2.82-5.65,0-8.45-3.54-4.15-2-4.15,3.23,1,5.33,3,4.11,2,6.06,0,3.69-3,5.15-3,.8,1.36-1.87,4.09-2.63,5.59.23,8.45S70.32,68.75,68.83,68.75Z"/></g></g></svg>